<?xml version="1.0" encoding="utf-8"?>
<svg xmlns="http://www.w3.org/2000/svg" fill="none" height="100%" overflow="visible" preserveAspectRatio="none" style="display: block;" viewBox="0 0 289 106" width="100%">
<g id="Vector">
<path d="M33.8271 0.748262H40.4989L31.3691 32.0872H25.1362L20.3519 10.6957L15.5236 32.0872H9.20296L0.0731553 0.748262H6.9644L11.0026 16.4177L12.495 22.7119L13.7679 16.4177L17.1915 0.748262H23.6L27.0236 16.4177L28.2965 22.7119L29.7889 16.4177L33.8271 0.748262Z" fill="var(--fill-0, #C63E3A)"/>
<path d="M50.9324 26.5853H67.6119V32.0872H44.4362V0.748262H67.173V6.25018H50.9324V13.0285H65.5489V18.6185H50.9324V26.5853Z" fill="var(--fill-0, #C63E3A)"/>
<path d="M78.7087 26.2772H93.9396V32.0872H72.2125V0.748262H78.7087V26.2772Z" fill="var(--fill-0, #C63E3A)"/>
<path d="M109.343 33.0996C101.003 33.0996 94.8141 26.5853 94.8141 16.4177C94.8141 6.2942 101.091 0.0440148 109.431 0.0440148C117.068 0.0440148 122.028 4.26949 122.599 11.1359H116.41C115.883 7.83474 113.6 5.67798 109.738 5.67798C104.295 5.67798 101.31 10.0355 101.31 16.4177C101.31 23.02 104.295 27.4656 109.738 27.4656C113.908 27.4656 115.927 24.8247 116.41 21.8316H122.555C122.028 29.0061 116.936 33.0996 109.343 33.0996Z" fill="var(--fill-0, #C63E3A)"/>
<path d="M139.996 33.0996C131.656 33.0996 125.248 26.5853 125.248 16.3737C125.248 6.25018 131.656 0 139.996 0C148.336 0 154.92 6.25018 154.92 16.3737C154.92 26.5413 148.336 33.0996 139.996 33.0996ZM139.996 27.4656C145.132 27.4656 148.424 23.02 148.424 16.3737C148.424 9.94747 145.132 5.63397 139.996 5.63397C134.861 5.63397 131.744 9.99149 131.744 16.3737C131.744 23.02 134.861 27.4656 139.996 27.4656Z" fill="var(--fill-0, #C63E3A)"/>
<path d="M180.777 0.748262H190.038V32.0872H183.981V20.3351L184.727 5.01775L182.577 14.4811L178.012 32.0872H171.384L166.731 14.1729L164.58 4.97374L165.327 20.3351V32.0872H159.313V0.748262H168.443L173.315 19.1467L174.588 25.3969L175.993 19.1467L180.777 0.748262Z" fill="var(--fill-0, #C63E3A)"/>
<path d="M202.244 26.5853H218.924V32.0872H195.748V0.748262H218.485V6.25018H202.244V13.0285H216.861V18.6185H202.244V26.5853Z" fill="var(--fill-0, #C63E3A)"/>
<path d="M257.761 0.748262V6.55829H248.412V32.0872H241.916V6.55829H232.522V0.748262H257.761Z" fill="var(--fill-0, #C63E3A)"/>
<path d="M274.076 33.0996C265.737 33.0996 259.328 26.5853 259.328 16.3737C259.328 6.25018 265.737 0 274.076 0C282.416 0 289 6.25018 289 16.3737C289 26.5413 282.416 33.0996 274.076 33.0996ZM274.076 27.4656C279.212 27.4656 282.504 23.02 282.504 16.3737C282.504 9.94747 279.212 5.63397 274.076 5.63397C268.941 5.63397 265.824 9.99149 265.824 16.3737C265.824 23.02 268.941 27.4656 274.076 27.4656Z" fill="var(--fill-0, #C63E3A)"/>
<path d="M103.27 36.9692H109.766V68.3082H103.27V54.8835H91.0679V68.3082H84.5717V36.9692H91.0679V49.0735H103.27V36.9692Z" fill="var(--fill-0, #C63E3A)"/>
<path d="M136.151 68.3082L134.044 61.7939H122.719L120.613 68.3082H113.721L124.782 36.9692H132.288L143.086 68.3082H136.151ZM124.475 56.424H132.332L131.059 52.5507L128.426 43.5275L125.748 52.5507L124.475 56.424Z" fill="var(--fill-0, #C63E3A)"/>
<path d="M162.638 36.9692H169.529L158.907 68.3082H152.762L142.183 36.9692H149.075L153.244 50.614L155.922 60.9576L158.599 50.614L162.638 36.9692Z" fill="var(--fill-0, #C63E3A)"/>
<path d="M191.06 68.3082L188.953 61.7939H177.629L175.522 68.3082H168.631L179.692 36.9692H187.198L197.995 68.3082H191.06ZM179.385 56.424H187.242L185.969 52.5507L183.335 43.5275L180.658 52.5507L179.385 56.424Z" fill="var(--fill-0, #C63E3A)"/>
<path d="M220.677 36.9692H227.173V68.3082H220.809L208.431 48.1932V68.3082H201.935V36.9692H208.299L220.677 57.0843V36.9692Z" fill="var(--fill-0, #C63E3A)"/>
<path d="M253.557 68.3082L251.45 61.7939H240.125L238.019 68.3082H231.127L242.188 36.9692H249.694L260.492 68.3082H253.557ZM241.881 56.424H249.738L248.465 52.5507L245.832 43.5275L243.154 52.5507L241.881 56.424Z" fill="var(--fill-0, #C63E3A)"/>
<path d="M276.546 69.3205C268.601 69.3205 263.466 65.3592 263.29 58.5808H269.655C269.83 62.058 272.376 63.9947 276.502 63.9947C280.057 63.9947 282.252 62.5422 282.252 60.0773C282.252 57.8325 280.452 56.9962 277.468 56.248L271.718 54.7955C266.845 53.563 264.036 50.482 264.036 46.0804C264.036 41.0627 267.679 36.265 275.712 36.265C283.262 36.265 288.046 40.4024 288.441 46.5646H282.12C281.725 43.3955 279.179 41.5909 275.756 41.5909C272.42 41.5909 270.576 43.2634 270.576 45.3762C270.576 47.0928 271.805 48.2812 274.22 48.8974L280.452 50.4379C285.324 51.6264 288.968 54.2233 288.968 59.4611C288.968 65.5352 284.271 69.3205 276.546 69.3205Z" fill="var(--fill-0, #C63E3A)"/>
<path d="M18.6985 73.6487H25.1947V104.988H18.6985V91.563H6.49621V104.988H0V73.6487H6.49621V85.7529H18.6985V73.6487Z" fill="var(--fill-0, #C63E3A)"/>
<path d="M44.3367 106C35.9969 106 29.5885 99.4857 29.5885 89.2742C29.5885 79.1506 35.9969 72.9004 44.3367 72.9004C52.6764 72.9004 59.2604 79.1506 59.2604 89.2742C59.2604 99.4417 52.6764 106 44.3367 106ZM44.3367 100.366C49.4722 100.366 52.7642 95.9205 52.7642 89.2742C52.7642 82.8479 49.4722 78.5344 44.3367 78.5344C39.2012 78.5344 36.0847 82.8919 36.0847 89.2742C36.0847 95.9205 39.2012 100.366 44.3367 100.366Z" fill="var(--fill-0, #C63E3A)"/>
<path d="M75.7684 106C68.1309 106 63.6538 102.215 63.6538 95.3483V73.6487H70.15V95.4363C70.15 98.7815 71.9936 100.366 75.8123 100.366C79.631 100.366 81.4306 98.7815 81.4306 95.4363V73.6487H87.9268V95.3483C87.9268 102.215 83.4058 106 75.7684 106Z" fill="var(--fill-0, #C63E3A)"/>
<path d="M105.731 106C97.786 106 92.6505 102.039 92.4749 95.2603H98.8394C99.015 98.7375 101.561 100.674 105.687 100.674C109.242 100.674 111.437 99.2216 111.437 96.7568C111.437 94.512 109.637 93.6757 106.652 92.9274L100.902 91.4749C96.0303 90.2425 93.2211 87.1614 93.2211 82.7599C93.2211 77.7421 96.8642 72.9445 104.897 72.9445C112.446 72.9445 117.231 77.0819 117.626 83.2441H111.305C110.91 80.0749 108.364 78.2703 104.941 78.2703C101.605 78.2703 99.7612 79.9429 99.7612 82.0556C99.7612 83.7722 100.99 84.9607 103.404 85.5769L109.637 87.1174C114.509 88.3058 118.152 90.9027 118.152 96.1406C118.152 102.215 113.456 106 105.731 106Z" fill="var(--fill-0, #C63E3A)"/>
<path d="M129.217 99.4857H145.897V104.988H122.721V73.6487H145.458V79.1506H129.217V85.929H143.834V91.5189H129.217V99.4857Z" fill="var(--fill-0, #C63E3A)"/>
</g>
</svg>