<?xml version="1.0" encoding="utf-8"?>
<svg xmlns="http://www.w3.org/2000/svg" fill="none" height="100%" overflow="visible" preserveAspectRatio="none" style="display: block;" viewBox="0 0 25 17" width="100%">
<path clip-rule="evenodd" d="M0.933333 0C0.417872 0 0 0.417872 0 0.933333C0 1.44879 0.417872 1.86667 0.933333 1.86667H23.3333C23.8487 1.86667 24.2667 1.44879 24.2667 0.933333C24.2667 0.417872 23.8487 0 23.3333 0H0.933333ZM0 8.4C0 7.88454 0.417872 7.46667 0.933333 7.46667H23.3333C23.8487 7.46667 24.2667 7.88454 24.2667 8.4C24.2667 8.91546 23.8487 9.33333 23.3333 9.33333H0.933333C0.417872 9.33333 0 8.91546 0 8.4ZM0 15.8667C0 15.3513 0.417872 14.9333 0.933333 14.9333H23.3333C23.8487 14.9333 24.2667 15.3513 24.2667 15.8667C24.2667 16.3821 23.8487 16.8 23.3333 16.8H0.933333C0.417872 16.8 0 16.3821 0 15.8667Z" fill="var(--fill-0, #0B0B0B)" fill-rule="evenodd" id="Vector"/>
</svg>