<?xml version="1.0" encoding="utf-8"?>
<svg xmlns="http://www.w3.org/2000/svg" fill="none" height="100%" overflow="visible" preserveAspectRatio="none" style="display: block;" viewBox="0 0 581 219" width="100%">
<g id="Vector">
<path d="M68.0053 1.54594H81.4181L63.0638 66.2934H50.5334L40.915 22.0978L31.2083 66.2934H18.5014L0.14707 1.54594H14.0011L22.1194 33.9197L25.1196 46.9237L27.6786 33.9197L34.5615 1.54594H47.4449L54.3278 33.9197L56.8868 46.9237L59.887 33.9197L68.0053 1.54594Z" fill="var(--fill-0, #C63E3A)"/>
<path d="M102.394 54.9262H135.926V66.2934H89.3337V1.54594H135.043V12.9131H102.394V26.9175H131.778V38.4665H102.394V54.9262Z" fill="var(--fill-0, #C63E3A)"/>
<path d="M158.234 54.2896H188.854V66.2934H145.175V1.54594H158.234V54.2896Z" fill="var(--fill-0, #C63E3A)"/>
<path d="M219.821 68.3849C203.055 68.3849 190.612 54.9262 190.612 33.9197C190.612 13.0041 203.231 0.0909362 219.997 0.0909362C235.351 0.0909362 245.323 8.82093 246.47 23.0072H234.028C232.969 16.1869 228.38 11.7309 220.615 11.7309C209.673 11.7309 203.672 20.7337 203.672 33.9197C203.672 47.5603 209.673 56.7449 220.615 56.7449C228.998 56.7449 233.057 51.2887 234.028 45.105H246.381C245.323 59.9278 235.086 68.3849 219.821 68.3849Z" fill="var(--fill-0, #C63E3A)"/>
<path d="M281.445 68.3849C264.679 68.3849 251.796 54.9262 251.796 33.8287C251.796 12.9131 264.679 0 281.445 0C298.211 0 311.448 12.9131 311.448 33.8287C311.448 54.8353 298.211 68.3849 281.445 68.3849ZM281.445 56.7449C291.77 56.7449 298.388 47.5603 298.388 33.8287C298.388 20.5519 291.77 11.64 281.445 11.64C271.121 11.64 264.856 20.6428 264.856 33.8287C264.856 47.5603 271.121 56.7449 281.445 56.7449Z" fill="var(--fill-0, #C63E3A)"/>
<path d="M363.431 1.54594H382.05V66.2934H369.872V42.0131L371.372 10.3669L367.049 29.9184L357.871 66.2934H344.547L335.193 29.2818L330.869 10.2759L332.369 42.0131V66.2934H320.28V1.54594H338.634L348.429 39.5578L350.988 52.4709L353.812 39.5578L363.431 1.54594Z" fill="var(--fill-0, #C63E3A)"/>
<path d="M406.588 54.9262H440.12V66.2934H393.528V1.54594H439.238V12.9131H406.588V26.9175H435.973V38.4665H406.588V54.9262Z" fill="var(--fill-0, #C63E3A)"/>
<path d="M518.198 1.54594V13.5497H499.402V66.2934H486.342V13.5497H467.458V1.54594H518.198Z" fill="var(--fill-0, #C63E3A)"/>
<path d="M550.998 68.3849C534.232 68.3849 521.348 54.9262 521.348 33.8287C521.348 12.9131 534.232 0 550.998 0C567.764 0 581 12.9131 581 33.8287C581 54.8353 567.764 68.3849 550.998 68.3849ZM550.998 56.7449C561.322 56.7449 567.94 47.5603 567.94 33.8287C567.94 20.5519 561.322 11.64 550.998 11.64C540.673 11.64 534.408 20.6428 534.408 33.8287C534.408 47.5603 540.673 56.7449 550.998 56.7449Z" fill="var(--fill-0, #C63E3A)"/>
<path d="M207.613 76.3798H220.672V141.127H207.613V113.391H183.081V141.127H170.021V76.3798H183.081V101.388H207.613V76.3798Z" fill="var(--fill-0, #C63E3A)"/>
<path d="M273.715 141.127L269.479 127.669H246.713L242.477 141.127H228.623L250.86 76.3798H265.95L287.657 141.127H273.715ZM250.242 116.574H266.038L263.479 108.572L258.184 89.9295L252.801 108.572L250.242 116.574Z" fill="var(--fill-0, #C63E3A)"/>
<path d="M326.964 76.3798H340.818L319.463 141.127H307.109L285.843 76.3798H299.697L308.08 104.57L313.463 125.941L318.845 104.57L326.964 76.3798Z" fill="var(--fill-0, #C63E3A)"/>
<path d="M384.104 141.127L379.868 127.669H357.102L352.866 141.127H339.012L361.249 76.3798H376.339L398.046 141.127H384.104ZM360.631 116.574H376.427L373.868 108.572L368.573 89.9295L363.19 108.572L360.631 116.574Z" fill="var(--fill-0, #C63E3A)"/>
<path d="M443.645 76.3798H456.705V141.127H443.91L419.026 99.5689V141.127H405.966V76.3798H418.761L443.645 117.938V76.3798Z" fill="var(--fill-0, #C63E3A)"/>
<path d="M509.746 141.127L505.51 127.669H482.743L478.508 141.127H464.654L486.891 76.3798H501.98L523.688 141.127H509.746ZM486.273 116.574H502.069L499.509 108.572L494.215 89.9295L488.832 108.572L486.273 116.574Z" fill="var(--fill-0, #C63E3A)"/>
<path d="M555.962 143.219C539.991 143.219 529.666 135.034 529.313 121.03H542.108C542.461 128.214 547.579 132.215 555.874 132.215C563.022 132.215 567.434 129.214 567.434 124.122C567.434 119.484 563.816 117.756 557.816 116.21L546.256 113.209C536.461 110.663 530.813 104.298 530.813 95.2039C530.813 84.837 538.138 74.9248 554.286 74.9248C569.463 74.9248 579.082 83.473 579.876 96.2042H567.169C566.375 89.6567 561.257 85.9283 554.374 85.9283C547.668 85.9283 543.961 89.3839 543.961 93.7489C543.961 97.2954 546.432 99.7508 551.286 101.024L563.816 104.207C573.611 106.662 580.935 112.027 580.935 122.849C580.935 135.398 571.493 143.219 555.962 143.219Z" fill="var(--fill-0, #C63E3A)"/>
<path d="M37.5912 152.161H50.651V216.908H37.5912V189.173H13.0598V216.908H0V152.161H13.0598V177.169H37.5912V152.161Z" fill="var(--fill-0, #C63E3A)"/>
<path d="M89.1336 219C72.3676 219 59.4842 205.541 59.4842 184.444C59.4842 163.528 72.3676 150.615 89.1336 150.615C105.9 150.615 119.136 163.528 119.136 184.444C119.136 205.45 105.9 219 89.1336 219ZM89.1336 207.36C99.4579 207.36 106.076 198.175 106.076 184.444C106.076 171.167 99.4579 162.255 89.1336 162.255C78.8093 162.255 72.5441 171.258 72.5441 184.444C72.5441 198.175 78.8093 207.36 89.1336 207.36Z" fill="var(--fill-0, #C63E3A)"/>
<path d="M152.323 219C136.969 219 127.968 211.179 127.968 196.993V152.161H141.028V197.175C141.028 204.086 144.734 207.36 152.412 207.36C160.089 207.36 163.707 204.086 163.707 197.175V152.161H176.766V196.993C176.766 211.179 167.677 219 152.323 219Z" fill="var(--fill-0, #C63E3A)"/>
<path d="M212.559 219C196.587 219 186.263 210.816 185.91 196.811H198.705C199.058 203.995 204.176 207.997 212.471 207.997C219.618 207.997 224.03 204.996 224.03 199.903C224.03 195.265 220.412 193.538 214.412 191.992L202.852 188.991C193.057 186.444 187.41 180.079 187.41 170.985C187.41 160.618 194.734 150.706 210.882 150.706C226.06 150.706 235.678 159.254 236.473 171.985H223.766C222.972 165.438 217.853 161.709 210.971 161.709C204.264 161.709 200.558 165.165 200.558 169.53C200.558 173.077 203.029 175.532 207.882 176.805L220.412 179.988C230.207 182.443 237.531 187.808 237.531 198.63C237.531 211.179 228.09 219 212.559 219Z" fill="var(--fill-0, #C63E3A)"/>
<path d="M259.776 205.541H293.308V216.908H246.716V152.161H292.426V163.528H259.776V177.533H289.161V189.082H259.776V205.541Z" fill="var(--fill-0, #C63E3A)"/>
</g>
</svg>