<?xml version="1.0" encoding="utf-8"?>
<svg xmlns="http://www.w3.org/2000/svg" fill="none" height="100%" overflow="visible" preserveAspectRatio="none" style="display: block;" viewBox="0 0 19 19" width="100%">
<path clip-rule="evenodd" d="M17.821 17.821C18.2374 17.4044 18.2374 16.729 17.821 16.3125L3.64183 2.13333H12.8C13.3891 2.13333 13.8667 1.65577 13.8667 1.06667C13.8667 0.477568 13.3891 0 12.8 0H1.06667C0.783765 0 0.512448 0.112384 0.312427 0.312427C0.112384 0.512469 0 0.783765 0 1.06667V12.8C0 13.3891 0.477568 13.8667 1.06667 13.8667C1.65577 13.8667 2.13333 13.3891 2.13333 12.8V3.64183L16.3123 17.821C16.729 18.2374 17.4044 18.2374 17.821 17.821Z" fill="var(--fill-0, black)" fill-rule="evenodd" id="Vector"/>
</svg>