<?xml version="1.0" encoding="utf-8"?>
<svg xmlns="http://www.w3.org/2000/svg" fill="none" height="100%" overflow="visible" preserveAspectRatio="none" style="display: block;" viewBox="0 0 52 52" width="100%">
<g id="Icon">
<rect fill="var(--fill-0, #979797)" height="52" rx="26" width="52"/>
<g id="Edit 2">
<g id="Camera">
<g id="Icon_2">
<path d="M37.0005 33C37.0005 33.5304 36.7898 34.0391 36.4147 34.4142C36.0396 34.7893 35.5309 35 35.0005 35H17.0005C16.4701 35 15.9613 34.7893 15.5863 34.4142C15.2112 34.0391 15.0005 33.5304 15.0005 33V22C15.0005 21.4696 15.2112 20.9609 15.5863 20.5858C15.9613 20.2107 16.4701 20 17.0005 20H21.0005L23.0005 17H29.0005L31.0005 20H35.0005C35.5309 20 36.0396 20.2107 36.4147 20.5858C36.7898 20.9609 37.0005 21.4696 37.0005 22V33Z" stroke="var(--stroke-0, white)" stroke-linecap="round" stroke-linejoin="round" stroke-width="2"/>
<path d="M26.0005 31C28.2096 31 30.0005 29.2091 30.0005 27C30.0005 24.7909 28.2096 23 26.0005 23C23.7913 23 22.0005 24.7909 22.0005 27C22.0005 29.2091 23.7913 31 26.0005 31Z" stroke="var(--stroke-0, white)" stroke-linecap="round" stroke-linejoin="round" stroke-width="2"/>
</g>
</g>
</g>
</g>
</svg>