<?xml version="1.0" encoding="utf-8"?>
<svg xmlns="http://www.w3.org/2000/svg" fill="none" height="100%" overflow="visible" preserveAspectRatio="none" style="display: block;" viewBox="0 0 410 150" width="100%">
<g id="Vector">
<path d="M47.99 1.05886H57.4551L44.5028 45.4064H35.6604L28.8729 15.1355L22.0231 45.4064H13.0561L0.103784 1.05886H9.88029L15.6092 23.2326L17.7264 32.1395L19.5323 23.2326L24.3894 1.05886H33.4809L38.338 23.2326L40.1439 32.1395L42.2611 23.2326L47.99 1.05886Z" fill="var(--fill-0, #C63E3A)"/>
<path d="M72.2571 37.6207H95.92V45.4064H63.041V1.05886H95.2973V8.8446H72.2571V18.4366H92.9933V26.3469H72.2571V37.6207Z" fill="var(--fill-0, #C63E3A)"/>
<path d="M111.663 37.1847H133.271V45.4064H102.447V1.05886H111.663V37.1847Z" fill="var(--fill-0, #C63E3A)"/>
<path d="M155.123 46.839C143.291 46.839 134.511 37.6207 134.511 23.2326C134.511 8.90688 143.416 0.0622851 155.247 0.0622851C166.083 0.0622851 173.119 6.04173 173.929 15.7583H165.149C164.401 11.0869 161.163 8.03488 155.683 8.03488C147.962 8.03488 143.727 14.2012 143.727 23.2326C143.727 32.5755 147.962 38.8664 155.683 38.8664C161.599 38.8664 164.464 35.1292 165.149 30.8938H173.866C173.119 41.0464 165.896 46.839 155.123 46.839Z" fill="var(--fill-0, #C63E3A)"/>
<path d="M198.61 46.839C186.779 46.839 177.687 37.6207 177.687 23.1704C177.687 8.8446 186.779 0 198.61 0C210.442 0 219.782 8.8446 219.782 23.1704C219.782 37.5584 210.442 46.839 198.61 46.839ZM198.61 38.8664C205.896 38.8664 210.566 32.5755 210.566 23.1704C210.566 14.0766 205.896 7.9726 198.61 7.9726C191.325 7.9726 186.903 14.1389 186.903 23.1704C186.903 32.5755 191.325 38.8664 198.61 38.8664Z" fill="var(--fill-0, #C63E3A)"/>
<path d="M256.466 1.05886H269.605V45.4064H261.011V28.7761L262.07 7.10059L259.019 20.4921L252.543 45.4064H243.14L236.539 20.0561L233.488 7.0383L234.546 28.7761V45.4064H226.015V1.05886H238.968L245.88 27.0944L247.685 35.939L249.678 27.0944L256.466 1.05886Z" fill="var(--fill-0, #C63E3A)"/>
<path d="M286.921 37.6207H310.584V45.4064H277.705V1.05886H309.961V8.8446H286.921V18.4366H307.657V26.3469H286.921V37.6207Z" fill="var(--fill-0, #C63E3A)"/>
<path d="M365.682 1.05886V9.2806H352.418V45.4064H343.202V9.2806H329.876V1.05886H365.682Z" fill="var(--fill-0, #C63E3A)"/>
<path d="M388.828 46.839C376.996 46.839 367.905 37.6207 367.905 23.1704C367.905 8.8446 376.996 0 388.828 0C400.659 0 410 8.8446 410 23.1704C410 37.5584 400.659 46.839 388.828 46.839ZM388.828 38.8664C396.114 38.8664 400.784 32.5755 400.784 23.1704C400.784 14.0766 396.114 7.9726 388.828 7.9726C381.542 7.9726 377.121 14.1389 377.121 23.1704C377.121 32.5755 381.542 38.8664 388.828 38.8664Z" fill="var(--fill-0, #C63E3A)"/>
<path d="M146.508 52.315H155.724V96.6625H146.508V77.6653H129.197V96.6625H119.981V52.315H129.197V69.4436H146.508V52.315Z" fill="var(--fill-0, #C63E3A)"/>
<path d="M193.155 96.6625L190.166 87.4442H174.1L171.111 96.6625H161.335L177.027 52.315H187.675L202.994 96.6625H193.155ZM176.591 79.8453H187.738L185.932 74.3642L182.195 61.5956L178.397 74.3642L176.591 79.8453Z" fill="var(--fill-0, #C63E3A)"/>
<path d="M230.732 52.315H240.508L225.439 96.6625H216.721L201.713 52.315H211.49L217.406 71.6236L221.204 86.2608L225.003 71.6236L230.732 52.315Z" fill="var(--fill-0, #C63E3A)"/>
<path d="M271.054 96.6625L268.065 87.4442H251.999L249.011 96.6625H239.234L254.926 52.315H265.575L280.893 96.6625H271.054ZM254.49 79.8453H265.637L263.831 74.3642L260.095 61.5956L256.296 74.3642L254.49 79.8453Z" fill="var(--fill-0, #C63E3A)"/>
<path d="M313.072 52.315H322.288V96.6625H313.258L295.698 68.1979V96.6625H286.482V52.315H295.511L313.072 80.7796V52.315Z" fill="var(--fill-0, #C63E3A)"/>
<path d="M359.717 96.6625L356.728 87.4442H340.662L337.673 96.6625H327.897L343.589 52.315H354.237L369.556 96.6625H359.717ZM343.153 79.8453H354.3L352.494 74.3642L348.758 61.5956L344.959 74.3642L343.153 79.8453Z" fill="var(--fill-0, #C63E3A)"/>
<path d="M392.331 98.0951C381.06 98.0951 373.775 92.4894 373.526 82.8973H382.555C382.804 87.8179 386.416 90.5585 392.269 90.5585C397.313 90.5585 400.427 88.5031 400.427 85.0151C400.427 81.8385 397.874 80.655 393.639 79.5962L385.482 77.5407C378.57 75.7967 374.584 71.4367 374.584 65.2081C374.584 58.1076 379.753 51.3184 391.148 51.3184C401.859 51.3184 408.646 57.1733 409.207 65.8933H400.24C399.679 61.4087 396.068 58.855 391.211 58.855C386.478 58.855 383.863 61.2218 383.863 64.2116C383.863 66.6407 385.606 68.3224 389.031 69.1944L397.874 71.3744C404.786 73.0562 409.954 76.731 409.954 84.1431C409.954 92.7385 403.291 98.0951 392.331 98.0951Z" fill="var(--fill-0, #C63E3A)"/>
<path d="M26.5273 104.22H35.7434V148.567H26.5273V129.57H9.21607V148.567H0V104.22H9.21607V121.348H26.5273V104.22Z" fill="var(--fill-0, #C63E3A)"/>
<path d="M62.8998 150C51.0683 150 41.9768 140.782 41.9768 126.331C41.9768 112.006 51.0683 103.161 62.8998 103.161C74.7312 103.161 84.0718 112.006 84.0718 126.331C84.0718 140.719 74.7312 150 62.8998 150ZM62.8998 142.027C70.1855 142.027 74.8558 135.737 74.8558 126.331C74.8558 117.238 70.1855 111.134 62.8998 111.134C55.6141 111.134 51.1929 117.3 51.1929 126.331C51.1929 135.737 55.6141 142.027 62.8998 142.027Z" fill="var(--fill-0, #C63E3A)"/>
<path d="M107.491 150C96.6564 150 90.3047 144.643 90.3047 134.927V104.22H99.5208V135.051C99.5208 139.785 102.136 142.027 107.554 142.027C112.971 142.027 115.524 139.785 115.524 135.051V104.22H124.74V134.927C124.74 144.643 118.327 150 107.491 150Z" fill="var(--fill-0, #C63E3A)"/>
<path d="M149.999 150C138.728 150 131.442 144.394 131.193 134.802H140.222C140.471 139.723 144.083 142.463 149.936 142.463C154.98 142.463 158.094 140.408 158.094 136.92C158.094 133.743 155.541 132.56 151.306 131.501L143.149 129.446C136.237 127.702 132.251 123.342 132.251 117.113C132.251 110.012 137.42 103.223 148.815 103.223C159.526 103.223 166.313 109.078 166.874 117.798H157.907C157.347 113.314 153.735 110.76 148.878 110.76C144.145 110.76 141.53 113.127 141.53 116.116C141.53 118.546 143.273 120.227 146.698 121.099L155.541 123.279C162.453 124.961 167.621 128.636 167.621 136.048C167.621 144.643 160.958 150 149.999 150Z" fill="var(--fill-0, #C63E3A)"/>
<path d="M183.319 140.782H206.982V148.567H174.103V104.22H206.359V112.006H183.319V121.598H204.055V129.508H183.319V140.782Z" fill="var(--fill-0, #C63E3A)"/>
</g>
</svg>